<svg xmlns="http://www.w3.org/2000/svg" viewBox="0 0 544.17 497.84"><defs><style>.a{fill:#643022;fill-rule:evenodd;}</style></defs><title>coffee</title><path class="a" d="M286.11,280.4h0c50.56,0,96.38-4.08,129.52-10.66,25.7-5.1,43.2-11,48.17-16.94C442.61,259,406.84,263,366.41,263h0c-64.83,0-117.71-10.44-117.71-23.25,0-9.17,27.14-17.13,66.36-20.91-9.42-.3-19.07-.45-28.9-.45h-.09c-50.55,0-96.38,4.08-129.52,10.66-30.63,6.08-49.62,13.34-49.63,20.32h0c0,7,19,14.25,49.64,20.33C189.7,276.32,235.51,280.4,286,280.4Z" transform="translate(-6.85 -9.1)"/><path class="a" d="M107.22,259.89c9.84,7,27,13,49.56,17.45q2.79.55,5.7,1.09c-2.21,43.76,12.87,141.26,148,164,2.54,0-44.62-2.12-42.11-2.16-22.92-1.36-41.21-6.53-69-17-32.75-12.57-39.17-20.56-55.88-41.11C113.88,341.56,107,293.87,107,264.73h0c0-1.62.07-3.23.21-4.83Z" transform="translate(-6.85 -9.1)"/><path class="a" d="M275.08,506.94c102.89,0,192.55-12.31,237.51-30.3C430.1,494.54-9.74,494,48.46,420.25,22.13,429,6.85,439.34,6.85,450.42c0,31.13,120.49,56.52,268.23,56.52Z" transform="translate(-6.85 -9.1)"/><path class="a" d="M327.15,475.23c27.31,0,53.6-.78,78.23-2.24-98.25-2.61-187.21-25.52-252.91-61.19Q144,407.2,136,402.33C99.55,410,77.51,420,77.51,430.83c0,24.45,112.14,44.39,249.64,44.39Z" transform="translate(-6.85 -9.1)"/><path class="a" d="M322.18,245.43l27.51-1.86S366,212.84,332.46,193c0,0-48.21-35.32,12.89-46.1,0,0,126.41-26.27,56-76.84,0,0-31-18.09-75.72-21.69,0,0-47.34,0-31-32.47,0,0-43.87,25.28-2.6,36.93,0,0,80.92,8.67,88.61,24.41,0,0,26.52,35.69-26.64,49.7,0,0-84.39,12.64-79.19,48.83,0,0,3.47,19,45.61,28,0,0,40.4,19,1.74,41.64Z" transform="translate(-6.85 -9.1)"/><path class="a" d="M340.27,189.41s-19.33-14-9.54-27.14c0,0,8.68-10.91,37.92-9.91,0,0-37.92,9.91-28.38,37.05Z" transform="translate(-6.85 -9.1)"/><path class="a" d="M354.4,70.07s21.94,6.32,25,19.83c0,0,4.21,16.36-6.44,24.91,0,0,9-21.69-18.59-44.74Z" transform="translate(-6.85 -9.1)"/><path class="a" d="M304.08,9.1S294.17,20.38,298,30.29c0,0,3.1,8.55,11.65,9.91,0,0-12-7.68-5.58-31.11Z" transform="translate(-6.85 -9.1)"/><path class="a" d="M295.53,133.27s-29.74,15-29.25,38.42c0,0,0,19.46,13.76,27.64,0,0-27.14-5-24.17-37.05,0,0,1.74-23.05,39.66-29Z" transform="translate(-6.85 -9.1)"/><path class="a" d="M266.29,29.42S259,56.07,282.52,58.3c0,0,27.64,2.73,37.05,7.31,0,0-26.27-2.35-37.8,0,0,0-40.52,0-15.49-36.19Z" transform="translate(-6.85 -9.1)"/><path class="a" d="M500.1,281.86c39-10.64,30.5,19.54,30.5,19.54-3.85-23.93-31.53-9.55-31.53-9.55-1.41,25.78-4.23,34.62-4.23,34.62,8.41,2.22,24.58-6.62,24.58-6.62C499.06,339.71,478,336.78,478,336.78c6.3-24.31,6-42.76,6-42.76-17.58,5.92-24.91,2.22-24.91,2.22-7.76-5.86-2.82-16.93-2.82-16.93s1.41,10.31,7.38,10.31c0,0,30.5-4.78,36.47-7.76Z" transform="translate(-6.85 -9.1)"/><path class="a" d="M452.88,301.29s6.19,9.72,19.48,3.8c0,0,3.74,67.73-31.58,86.89,0,0,21.92-39.89,12.1-90.68Z" transform="translate(-6.85 -9.1)"/><path class="a" d="M419.23,234.16s20,.38,32,7.33c0,0-4.12,8.3-70.5,9.5,0,0,49.38-5.16,55.79-9.5,0,0-2.6-4.56-17.31-7.33Z" transform="translate(-6.85 -9.1)"/><path class="a" d="M403.61,439.89s49.11-18.45,70.88-78.15c0,0,35.11-1.47,54.05-17.58,0,0,20.35-17,22.41-36.14,0,0,5.1,53.29-72.94,69.25,0,0-10.53,44.93-74.4,62.63Z" transform="translate(-6.85 -9.1)"/></svg>